<svg width="50" height="51" viewBox="0 0 50 51" fill="none" xmlns="http://www.w3.org/2000/svg">
<path d="M49.9061 25.4176C49.9061 31.9567 47.3085 38.2279 42.6847 42.8518C38.0608 47.4756 31.7895 50.0733 25.2504 50.0733C18.7113 50.0733 12.4401 47.4756 7.81622 42.8518C3.19237 38.2279 0.594727 31.9567 0.594727 25.4176C0.594727 18.8785 3.19237 12.6072 7.81622 7.98333C12.4401 3.35949 18.7113 0.761841 25.2504 0.761841C31.7895 0.761841 38.0608 3.35949 42.6847 7.98333C47.3085 12.6072 49.9061 18.8785 49.9061 25.4176ZM25.2504 11.5487C25.2504 11.14 25.0881 10.7481 24.7991 10.4591C24.5101 10.1701 24.1181 10.0077 23.7095 10.0077C23.3008 10.0077 22.9088 10.1701 22.6198 10.4591C22.3308 10.7481 22.1685 11.14 22.1685 11.5487V28.4995C22.1686 28.7711 22.2404 29.0379 22.3768 29.2728C22.5132 29.5077 22.7093 29.7024 22.9451 29.8371L33.732 36.001C34.086 36.1923 34.5008 36.2376 34.8877 36.1271C35.2746 36.0167 35.603 35.7593 35.8026 35.4099C36.0022 35.0605 36.0573 34.6469 35.956 34.2575C35.8548 33.8681 35.6052 33.5337 35.2607 33.3259L25.2504 27.6057V11.5487Z" fill="white"/>
</svg>
