<svg width="119" height="119" viewBox="0 0 119 119" fill="none" xmlns="http://www.w3.org/2000/svg">
<path d="M102.765 25.6746H91.0444V15.3152C93.0517 15.0845 94.6206 13.4003 94.6206 11.3238C94.6206 9.10888 92.821 7.30927 90.606 7.30927H70.395C68.1801 7.30927 66.3804 9.10888 66.3804 11.3238C66.3804 13.308 67.8109 14.9461 69.7028 15.2922V25.6977H56.9901C54.2676 25.6977 52.0527 27.9126 52.0527 30.6581V36.3338H60.8201C63.681 36.3338 66.1959 37.8797 67.5571 40.1869H74.0634H94.2976C95.1974 40.1869 95.9126 40.9021 95.9126 41.8019C95.9126 42.7017 95.1974 43.417 94.2976 43.417H90.0985V45.7011C90.0985 46.6009 89.3832 47.3161 88.4834 47.3161C87.5836 47.3161 86.8684 46.6009 86.8684 45.7011V43.417H68.8953C68.803 43.417 68.7107 43.4169 68.6184 43.3939H68.5954C68.6184 43.6477 68.6415 43.9015 68.6415 44.1553V54.5146H79.9006C84.7227 54.5146 88.668 58.4368 88.668 63.2819V106.38C88.668 108.48 87.9297 110.395 86.6838 111.918H102.788C105.511 111.918 107.725 109.703 107.725 106.98V30.612C107.702 27.8895 105.487 25.6746 102.765 25.6746ZM72.9329 25.6746V15.3383H87.8143V25.6746H72.9329Z" fill="white"/>
<path d="M11.123 63.2358V106.334C11.123 109.403 13.5918 111.872 16.6603 111.872H24.4125V57.6985H16.6603C13.5918 57.6985 11.123 60.1672 11.123 63.2358Z" fill="white"/>
<path d="M79.8772 57.6985H72.125V111.848H79.8772C82.9227 111.848 85.4145 109.38 85.4145 106.311V63.2358C85.4145 60.1672 82.9227 57.6985 79.8772 57.6985Z" fill="white"/>
<path d="M55.4215 57.6985H41.0938V111.848H55.4215V57.6985Z" fill="white"/>
<path d="M65.3884 57.6985V44.1091C65.3884 41.5712 63.335 39.5178 60.797 39.5178H35.7408C33.2029 39.5178 31.1495 41.5712 31.1495 44.1091V57.6985H27.6426V111.848H37.8635V57.6985H34.3565V44.1091C34.3565 43.3477 34.9564 42.7478 35.7178 42.7478H60.797C61.5584 42.7478 62.1583 43.3477 62.1583 44.1091V57.6985H58.6513V111.848H68.8722V57.6985H65.3884Z" fill="white"/>
</svg>
