<svg width="120" height="119" viewBox="0 0 120 119" fill="none" xmlns="http://www.w3.org/2000/svg">
<g clip-path="url(#clip0_2449_7322)">
<path d="M25.9922 48.4553C29.2399 48.4553 31.8816 51.0971 31.8816 54.3448C31.8816 57.5925 29.2399 60.2343 25.9922 60.2343C22.7445 60.2343 20.1027 57.5925 20.1027 54.3448C20.1027 51.0971 22.7445 48.4553 25.9922 48.4553ZM113.244 80.6171H85.9775C84.7172 80.6171 83.675 81.6351 83.675 82.9196V86.6036C83.675 87.8639 84.693 88.906 85.9775 88.906H113.244C114.504 88.906 115.546 87.8881 115.546 86.6036V82.9196C115.546 81.6593 114.504 80.6171 113.244 80.6171ZM82.0754 91.8871C80.8151 91.8871 79.7729 92.905 79.7729 94.1896V97.8735C79.7729 99.1338 80.7909 100.176 82.0754 100.176H109.341C110.602 100.176 111.644 99.1581 111.644 97.8735V94.1896C111.644 92.9293 110.626 91.8871 109.341 91.8871H82.0754ZM116.758 58.1014H89.4918C88.2315 58.1014 87.1893 59.1194 87.1893 60.4039V64.0879C87.1893 65.3482 88.2072 66.3903 89.4918 66.3903H116.758C118.018 66.3903 119.06 65.3724 119.06 64.0879V60.4039C119.06 59.1436 118.018 58.1014 116.758 58.1014ZM109.341 69.3714H82.0754C80.8151 69.3714 79.7729 70.3893 79.7729 71.6739V75.3578C79.7729 76.6181 80.7909 77.6603 82.0754 77.6603H109.341C110.602 77.6603 111.644 76.6424 111.644 75.3578V71.6739C111.62 70.3893 110.602 69.3714 109.341 69.3714ZM85.105 49.1339V52.8179C85.105 54.0782 86.1229 55.1204 87.4074 55.1204H114.673C115.934 55.1204 116.976 54.1024 116.976 52.8179V49.1339C116.976 47.8736 115.958 46.8315 114.673 46.8315H87.4074C86.1229 46.8557 85.105 47.8736 85.105 49.1339ZM10.6262 88.906H68.091H79.167C80.185 88.906 81.0332 88.082 81.0332 87.0398V82.4834C81.0332 81.4654 80.2092 80.6171 79.167 80.6171H68.091H20.5874C20.854 79.163 20.8298 77.5876 20.3208 75.9637C19.521 73.3704 17.6063 71.2376 15.1827 70.0258C13.0741 68.9594 11.0625 68.814 9.22052 69.1533V39.3666C11.426 39.7544 13.8739 39.4878 16.443 37.7428C17.9941 36.7006 19.2544 35.2222 19.9815 33.4772C20.8056 31.514 20.9025 29.6236 20.5874 27.8785H92.6183C92.2547 29.3327 92.2063 30.9081 92.5941 32.5319C93.4423 36.1674 96.3749 39.0516 100.035 39.8514C101.634 40.1907 103.161 40.1422 104.567 39.7787V42.0811C104.567 43.1233 105.415 43.9716 106.457 43.9716H110.965C112.007 43.9716 112.856 43.1233 112.856 42.0811V29.2843C112.856 23.928 108.517 19.5897 103.161 19.5897H10.6262C5.26997 19.5897 0.931641 23.928 0.931641 29.2843V79.163C0.931641 84.5677 5.26997 88.906 10.6262 88.906ZM56.8695 33.0409C68.5999 33.0409 78.1006 42.5416 78.1006 54.2721C78.1006 66.0025 68.5999 75.5032 56.8695 75.5032C45.139 75.5032 35.6383 66.0025 35.6383 54.2721C35.6383 42.5416 45.1632 33.0409 56.8695 33.0409ZM56.9179 39.7302C56.6513 39.7302 56.3847 39.7302 56.1181 39.7302C55.2699 39.7544 55.1244 39.8998 55.1002 40.7724C55.1002 41.1601 55.1002 41.5479 55.1002 41.9357C55.1002 43.0748 55.076 43.0506 53.9853 43.4626C51.3435 44.4321 49.7197 46.2256 49.5258 49.1097C49.3804 51.6545 50.6892 53.3753 52.7977 54.6356C54.0823 55.4112 55.5122 55.8717 56.8937 56.4776C57.4269 56.72 57.9359 56.9866 58.3964 57.3501C59.7051 58.4408 59.4628 60.2585 57.9116 60.9371C57.0634 61.3007 56.1908 61.3976 55.2941 61.2764C53.8884 61.1068 52.5554 60.7432 51.2951 60.0888C50.568 59.7011 50.3498 59.798 50.0832 60.5978C49.8651 61.2764 49.6712 61.9793 49.4773 62.6821C49.2107 63.6274 49.3077 63.8455 50.2044 64.2818C51.3435 64.8392 52.5554 65.1058 53.8157 65.3239C54.7851 65.4693 54.8094 65.5178 54.8336 66.5357C54.8336 66.9962 54.8336 67.4567 54.8578 67.9172C54.8578 68.4989 55.1487 68.8382 55.7304 68.8382C56.409 68.8624 57.0876 68.8624 57.7662 68.8382C58.3237 68.814 58.6145 68.5231 58.6145 67.9657C58.6145 67.3355 58.6387 66.7054 58.6145 66.0753C58.5903 65.4451 58.8569 65.1058 59.487 64.9361C60.8927 64.5484 62.1045 63.797 63.0255 62.6579C65.5946 59.5314 64.6009 54.9749 60.9654 52.9633C59.8263 52.3332 58.6145 51.8484 57.4027 51.3637C56.6998 51.0729 56.0454 50.7336 55.4637 50.2731C54.3004 49.3521 54.5185 47.8494 55.8758 47.2435C56.2635 47.0738 56.6513 47.0254 57.0634 47.0011C58.6387 46.9042 60.1414 47.195 61.5471 47.8979C62.25 48.2372 62.4923 48.1402 62.7347 47.3889C62.9771 46.6133 63.1952 45.8135 63.4375 45.038C63.583 44.5048 63.4133 44.1655 62.9043 43.9473C61.9834 43.5353 61.0624 43.2445 60.0687 43.0991C58.7841 42.9052 58.7841 42.8809 58.7841 41.5964C58.7357 39.7302 58.7357 39.7302 56.9179 39.7302Z" fill="white"/>
</g>
<defs>
<clipPath id="clip0_2449_7322">
<rect width="118.129" height="118.129" fill="white" transform="translate(0.935547 0.818726)"/>
</clipPath>
</defs>
</svg>
