<svg width="119" height="119" viewBox="0 0 119 119" fill="none" xmlns="http://www.w3.org/2000/svg">
<g clip-path="url(#clip0_2449_6389)">
<path d="M74.8434 33.0825C74.3205 32.7793 73.7427 32.5827 73.1434 32.504C72.5441 32.4253 71.9352 32.466 71.3517 32.6239C70.7683 32.7818 70.2219 33.0537 69.7441 33.4238C69.2662 33.794 68.8665 34.2551 68.5678 34.7806L42.2103 80.4078C41.9071 80.9307 41.7105 81.5084 41.6318 82.1077C41.5531 82.707 41.5939 83.316 41.7518 83.8994C41.9096 84.4828 42.1815 85.0293 42.5517 85.5071C42.9218 85.9849 43.3829 86.3847 43.9084 86.6834C44.5959 87.1029 45.3926 87.3084 46.1972 87.274C47.003 87.2706 47.7942 87.0578 48.4931 86.6566C49.192 86.2554 49.7747 85.6795 50.184 84.9853L76.5415 39.3581C76.8548 38.8378 77.0597 38.2596 77.1438 37.6581C77.2279 37.0566 77.1895 36.4444 77.0308 35.8581C76.8722 35.2719 76.5966 34.7238 76.2207 34.2468C75.8448 33.7698 75.3763 33.3737 74.8434 33.0825ZM54.6138 48.2916C54.7741 44.0858 53.2653 39.9873 50.4163 36.8893C47.5673 33.7914 43.6092 31.9453 39.4048 31.7535C35.194 31.9454 31.2285 33.789 28.3678 36.8847C25.5071 39.9804 23.9815 44.0788 24.1219 48.2916C23.9616 52.5169 25.4782 56.6342 28.3411 59.7459C31.2039 62.8577 35.1808 64.7116 39.4048 64.9034C43.6225 64.7118 47.5921 62.8554 50.4432 59.7414C53.2943 56.6273 54.7941 52.5098 54.6138 48.2916ZM39.4048 55.6746C37.635 55.4699 36.0141 54.5852 34.8844 53.2076C33.7547 51.83 33.2048 50.0672 33.3507 48.2916C33.1855 46.5119 33.7284 44.7389 34.8617 43.3569C35.9949 41.9748 37.6273 41.0951 39.4048 40.9085C41.1768 41.0946 42.8024 41.977 43.9239 43.3615C45.0454 44.7461 45.571 46.5195 45.385 48.2916C45.5513 50.0597 45.0184 51.8227 43.9006 53.2027C42.7828 54.5827 41.1689 55.47 39.4048 55.6746ZM79.4208 54.8625C75.2164 55.0543 71.2583 56.9003 68.4093 59.9983C65.5604 63.0962 64.0515 67.1947 64.2118 71.4005C64.0315 75.6187 65.5314 79.7363 68.3824 82.8503C71.2335 85.9643 75.2031 87.8207 79.4208 88.0123C83.6448 87.8205 87.6217 85.9666 90.4846 82.8549C93.3474 79.7431 94.864 75.6258 94.7037 71.4005C94.8441 67.1877 93.3186 63.0893 90.4578 59.9936C87.5971 56.898 83.6316 55.0544 79.4208 54.8625ZM79.4208 78.7835C77.6567 78.579 76.0429 77.6916 74.925 76.3116C73.8072 74.9316 73.2743 73.1686 73.4406 71.4005C73.2743 69.6323 73.8072 67.8694 74.925 66.4893C76.0429 65.1093 77.6567 64.222 79.4208 64.0174C81.1984 64.2041 82.8307 65.0837 83.964 66.4658C85.0972 67.8478 85.6401 69.6208 85.4749 71.4005C85.6208 73.1761 85.0709 74.9389 83.9412 76.3165C82.8115 77.6942 81.1906 78.5788 79.4208 78.7835Z" fill="white"/>
<path d="M59.41 4.50998C44.2379 4.03224 29.4964 9.59509 18.4223 19.9771C7.34815 30.359 0.846779 44.7114 0.345703 59.8828C0.846779 75.0541 7.34815 89.4065 18.4223 99.7885C29.4964 110.17 44.2379 115.733 59.41 115.256C74.5821 115.733 89.3237 110.17 100.398 99.7885C111.472 89.4065 117.973 75.0541 118.474 59.8828C117.973 44.7114 111.472 30.359 100.398 19.9771C89.3237 9.59509 74.5821 4.03224 59.41 4.50998ZM59.41 106.027C46.6903 106.486 34.3063 101.89 24.967 93.2421C15.6277 84.5946 10.0933 72.6002 9.5745 59.8828C10.0933 47.1653 15.6277 35.171 24.967 26.5235C34.3063 17.876 46.6903 13.2792 59.41 13.7388C72.1297 13.2792 84.5138 17.876 93.8531 26.5235C103.192 35.171 108.727 47.1653 109.246 59.8828C108.727 72.6002 103.192 84.5946 93.8531 93.2421C84.5138 101.89 72.1297 106.486 59.41 106.027Z" fill="white"/>
<g clip-path="url(#clip1_2449_6389)">
<path d="M64.3341 57.3606C64.3341 57.2586 64.2515 57.176 64.1496 57.176H63.4112C63.3093 57.176 63.2267 57.2586 63.2267 57.3606V59.0217H62.8575V55.0226C62.8575 54.8434 62.8571 54.7275 62.8457 54.6421C62.8349 54.5621 62.8175 54.537 62.8035 54.5229C62.7894 54.5089 62.7643 54.4915 62.6843 54.4807C62.5989 54.4693 62.483 54.4689 62.3038 54.4689C62.1246 54.4689 62.0087 54.4693 61.9233 54.4807C61.8433 54.4915 61.8182 54.5089 61.8041 54.5229C61.7901 54.537 61.7727 54.5621 61.7619 54.6421C61.7505 54.7275 61.7501 54.8434 61.7501 55.0226V59.0217H61.3809V56.1301C61.3809 56.0281 61.2983 55.9455 61.1963 55.9455H60.458C60.3561 55.9455 60.2735 56.0281 60.2735 56.1301V59.0217H59.9043H59.8428C59.7408 59.0217 59.6582 59.1044 59.6582 59.2063C59.6582 59.3083 59.7408 59.3909 59.8428 59.3909H64.7648C64.8667 59.3909 64.9494 59.3083 64.9494 59.2063C64.9494 59.1044 64.8667 59.0217 64.7648 59.0217H64.7033H64.3341V57.3606Z" fill="white"/>
</g>
</g>
<defs>
<clipPath id="clip0_2449_6389">
<rect width="118.129" height="118.129" fill="white" transform="translate(0.344727 0.818726)"/>
</clipPath>
<clipPath id="clip1_2449_6389">
<rect width="5.90643" height="5.90643" fill="white" transform="translate(59.4102 53.9765)"/>
</clipPath>
</defs>
</svg>
