<svg width="40" height="40" viewBox="0 0 40 40" fill="none" xmlns="http://www.w3.org/2000/svg">
<g clip-path="url(#clip0_1503_5640)">
<path d="M1.27246 14.9565H33.3181" stroke="white" stroke-width="2.36645" stroke-miterlimit="10" stroke-linecap="round" stroke-linejoin="round"/>
<path d="M6.20215 26.0493H8.6672" stroke="white" stroke-width="2.36645" stroke-miterlimit="10" stroke-linecap="round" stroke-linejoin="round"/>
<path d="M6.20215 22.3516H12.3648" stroke="white" stroke-width="2.36645" stroke-miterlimit="10" stroke-linecap="round" stroke-linejoin="round"/>
<path d="M35.7832 38.3745H25.9231C24.5673 38.3745 23.458 37.2652 23.458 35.9094V30.9793C23.458 29.6236 24.5673 28.5143 25.9231 28.5143H35.7832C37.139 28.5143 38.2483 29.6236 38.2483 30.9793V35.9094C38.2483 37.2652 37.139 38.3745 35.7832 38.3745Z" stroke="white" stroke-width="2.36645" stroke-miterlimit="10" stroke-linecap="round" stroke-linejoin="round"/>
<path d="M35.783 28.5143H25.9229V23.5842C25.9229 20.8727 28.1414 18.6541 30.8529 18.6541C33.5645 18.6541 35.783 20.8727 35.783 23.5842V28.5143Z" stroke="white" stroke-width="2.36645" stroke-miterlimit="10" stroke-linecap="round" stroke-linejoin="round"/>
<path d="M30.8535 32.2119V34.6769" stroke="white" stroke-width="2.36645" stroke-miterlimit="10" stroke-linecap="round" stroke-linejoin="round"/>
<path d="M23.4579 30.9793H3.73751C2.38173 30.9793 1.27246 29.87 1.27246 28.5142V12.4914C1.27246 11.1356 2.38173 10.0264 3.73751 10.0264H30.853C32.2088 10.0264 33.3181 11.1356 33.3181 12.4914V19.2703" stroke="white" stroke-width="2.36645" stroke-miterlimit="10" stroke-linecap="round" stroke-linejoin="round"/>
<path d="M26.2932 21.7353C26.0467 21.4888 25.677 21.3656 25.3072 21.2423C25.0607 21.1191 24.9374 21.1191 24.6909 21.1191C23.9514 21.1191 23.3352 21.4888 22.8422 21.9818C22.3491 21.4888 21.7329 21.1191 20.9934 21.1191C19.6376 21.1191 18.5283 22.2284 18.5283 23.5841C18.5283 24.9399 19.6376 26.0492 20.9934 26.0492C21.7329 26.0492 22.3491 25.6794 22.8422 25.1864C23.3352 25.6794 23.9514 26.0492 24.6909 26.0492C25.1839 26.0492 25.5537 25.9259 25.9235 25.6794" stroke="white" stroke-width="2.36645" stroke-miterlimit="10" stroke-linecap="round" stroke-linejoin="round"/>
</g>
<defs>
<clipPath id="clip0_1503_5640">
<rect width="39.4408" height="39.4408" fill="white" transform="translate(0.0400391 0.166199)"/>
</clipPath>
</defs>
</svg>
