<svg width="40" height="40" viewBox="0 0 40 40" fill="none" xmlns="http://www.w3.org/2000/svg">
<path d="M5.71582 33.8258L6.33208 32.5932C8.79713 27.9096 10.0297 22.8563 10.0297 17.6797C10.0297 12.3799 14.2202 7.81952 19.7666 7.57301C25.4362 7.44976 30.1198 11.7636 30.1198 17.1867V23.2261C30.1198 24.9516 31.1058 26.4306 32.5848 27.1701" stroke="white" stroke-width="2.36645" stroke-miterlimit="10" stroke-linecap="round" stroke-linejoin="round"/>
<path d="M5.3457 18.1727C5.3457 9.54508 11.8781 2.64294 20.136 2.64294C28.3939 2.64294 34.9263 9.54508 34.9263 18.1727V22.3633" stroke="white" stroke-width="2.36645" stroke-miterlimit="10" stroke-linecap="round" stroke-linejoin="round"/>
<path d="M9.53711 37.1536L9.66036 36.9071C13.4812 30.7445 15.5765 23.8424 15.5765 16.817C15.5765 14.5984 17.4253 12.6264 19.8903 12.5031C22.4786 12.3799 24.6971 14.2287 24.6971 16.5705C25.1902 26.0609 19.8903 37.0304 19.8903 37.0304" stroke="white" stroke-width="2.36645" stroke-miterlimit="10" stroke-linecap="round" stroke-linejoin="round"/>
<path d="M20.2592 17.4332L20.0127 19.1588C19.2732 25.3214 17.6709 31.3607 15.3291 37.1536" stroke="white" stroke-width="2.36645" stroke-miterlimit="10" stroke-linecap="round" stroke-linejoin="round"/>
</svg>
