<svg width="41" height="40" viewBox="0 0 41 40" fill="none" xmlns="http://www.w3.org/2000/svg">
<path d="M31.5696 8.42417C27.379 8.42417 23.435 6.69863 20.4769 3.86383C17.5189 6.69863 13.5748 8.42417 9.3842 8.42417C7.65866 8.42417 6.05638 8.05441 4.4541 7.5614C4.4541 24.8167 11.233 31.7189 20.4769 35.9094C29.7208 31.7189 36.4997 24.8167 36.4997 7.5614C34.8974 8.05441 33.2952 8.42417 31.5696 8.42417Z" stroke="white" stroke-width="2.36645" stroke-miterlimit="10" stroke-linecap="round" stroke-linejoin="round"/>
<path d="M20.476 21.1191C23.1988 21.1191 25.4061 18.9118 25.4061 16.189C25.4061 13.4662 23.1988 11.2589 20.476 11.2589C17.7532 11.2589 15.5459 13.4662 15.5459 16.189C15.5459 18.9118 17.7532 21.1191 20.476 21.1191Z" stroke="white" stroke-width="2.36645" stroke-miterlimit="10" stroke-linecap="round" stroke-linejoin="round"/>
<path d="M10.9854 29.2538C13.2039 26.5422 16.655 24.8167 20.4758 24.8167C24.2966 24.8167 27.7477 26.5422 29.9662 29.2538" stroke="white" stroke-width="2.36645" stroke-miterlimit="10" stroke-linecap="round" stroke-linejoin="round"/>
</svg>
