<svg width="41" height="40" viewBox="0 0 41 40" fill="none" xmlns="http://www.w3.org/2000/svg">
<g clip-path="url(#clip0_1503_5664)">
<path d="M4.37891 32.2235L7.58347 27.0469C9.43225 24.2121 12.5136 22.3633 15.9646 22.3633H24.0993C24.0993 25.0749 21.8807 27.2934 19.1692 27.2934H16.7041" stroke="white" stroke-width="2.36645" stroke-miterlimit="10" stroke-linecap="round" stroke-linejoin="round"/>
<path d="M19.1689 27.2934H29.0291L30.5081 25.3214C31.8639 23.4726 34.0824 22.3633 36.4242 22.3633L33.0964 28.2795C31.3709 31.484 27.9198 33.4561 24.3455 33.4561C18.5526 33.4561 12.883 35.1816 8.07617 38.3861" stroke="white" stroke-width="2.36645" stroke-miterlimit="10" stroke-linecap="round" stroke-linejoin="round"/>
<path d="M21.6348 27.2934C28.6602 24.0889 33.96 18.789 33.96 5.47775C32.7275 5.84751 31.495 6.09401 30.1392 6.09401C26.9347 6.09401 23.8533 4.73823 21.6348 2.64294C19.293 4.86149 16.335 6.09401 13.1304 6.09401C11.7746 6.09401 10.5421 5.84751 9.30957 5.47775C9.30957 13.7357 11.4049 18.9123 14.6094 22.4866" stroke="white" stroke-width="2.36645" stroke-miterlimit="10" stroke-linecap="round" stroke-linejoin="round"/>
</g>
<defs>
<clipPath id="clip0_1503_5664">
<rect width="39.4408" height="39.4408" fill="white" transform="translate(0.681641 0.177917)"/>
</clipPath>
</defs>
</svg>
