<svg xmlns="http://www.w3.org/2000/svg" width="50" height="51" viewBox="0 0 50 51" fill="none">
    <path
        d="M49.9061 25.4877C49.9061 32.0268 47.3085 38.2981 42.6847 42.9219C38.0608 47.5457 31.7895 50.1434 25.2504 50.1434C18.7113 50.1434 12.4401 47.5457 7.81622 42.9219C3.19237 38.2981 0.594727 32.0268 0.594727 25.4877C0.594727 18.9486 3.19237 12.6773 7.81622 8.05346C12.4401 3.42962 18.7113 0.83197 25.2504 0.83197C31.7895 0.83197 38.0608 3.42962 42.6847 8.05346C47.3085 12.6773 49.9061 18.9486 49.9061 25.4877ZM25.2504 11.6188C25.2504 11.2101 25.0881 10.8182 24.7991 10.5292C24.5101 10.2402 24.1181 10.0779 23.7095 10.0779C23.3008 10.0779 22.9088 10.2402 22.6198 10.5292C22.3308 10.8182 22.1685 11.2101 22.1685 11.6188V28.5696C22.1686 28.8413 22.2404 29.108 22.3768 29.3429C22.5132 29.5778 22.7093 29.7725 22.9451 29.9072L33.732 36.0711C34.086 36.2625 34.5008 36.3077 34.8877 36.1973C35.2746 36.0868 35.603 35.8294 35.8026 35.48C36.0022 35.1307 36.0573 34.7171 35.956 34.3276C35.8548 33.9382 35.6052 33.6038 35.2607 33.396L25.2504 27.6759V11.6188Z"
        fill="white" />
</svg>